<svg xmlns="http://www.w3.org/2000/svg" xmlns:xlink="http://www.w3.org/1999/xlink" width="200" zoomAndPan="magnify" viewBox="0 0 150 149.999998" height="200" preserveAspectRatio="xMidYMid meet" version="1.0"><defs><clipPath id="2230499d8f"><path d="M 2.25 2.410156 L 144.75 2.410156 L 144.75 150 L 2.25 150 Z M 2.25 2.410156 " clip-rule="nonzero"/></clipPath></defs><g clip-path="url(#2230499d8f)"><path fill="#28292a" d="M 141.351562 98.179688 C 143.738281 99.558594 144.746094 102.503906 143.664062 105.035156 C 140.035156 113.511719 134.792969 121.304688 128.089844 128.027344 C 114.648438 141.507812 96.429688 149.300781 77.386719 149.671875 C 57.066406 150.066406 37.902344 142.304688 23.621094 127.925781 C 9.914062 114.125 2.25 95.53125 2.25 76.085938 C 2.25 56.429688 9.910156 37.945312 23.824219 24.046875 C 37.734375 10.144531 56.230469 2.488281 75.90625 2.488281 C 95.371094 2.488281 113.6875 9.988281 127.546875 23.613281 L 135.066406 16.097656 C 136.382812 14.785156 137.605469 15.222656 137.785156 17.074219 L 140.074219 40.882812 C 140.25 42.730469 138.878906 44.101562 137.027344 43.921875 L 113.203125 41.636719 C 111.347656 41.460938 110.910156 40.238281 112.226562 38.921875 L 119.832031 31.324219 C 108.03125 19.757812 92.457031 13.394531 75.90625 13.394531 C 41.25 13.394531 13.066406 41.613281 13.164062 76.261719 C 13.253906 110.46875 41.09375 138.46875 75.328125 138.78125 C 101.398438 139.015625 123.890625 123.273438 133.574219 100.78125 C 134.871094 97.761719 138.503906 96.535156 141.351562 98.179688 Z M 75.589844 26.21875 C 74.453125 26.21875 73.53125 27.140625 73.53125 28.273438 C 73.53125 29.40625 74.453125 30.328125 75.589844 30.328125 C 76.722656 30.328125 77.644531 29.40625 77.644531 28.273438 C 77.644531 27.140625 76.722656 26.21875 75.589844 26.21875 Z M 50.632812 32.902344 C 49.652344 33.46875 49.316406 34.726562 49.882812 35.707031 C 50.449219 36.6875 51.707031 37.027344 52.691406 36.457031 C 53.671875 35.890625 54.011719 34.636719 53.441406 33.652344 C 52.875 32.671875 51.617188 32.335938 50.632812 32.902344 Z M 32.367188 51.152344 C 31.800781 52.136719 32.136719 53.390625 33.121094 53.957031 C 34.105469 54.527344 35.359375 54.191406 35.925781 53.207031 C 36.496094 52.226562 36.15625 50.96875 35.175781 50.402344 C 34.191406 49.835938 32.9375 50.171875 32.367188 51.152344 Z M 25.679688 76.085938 C 25.679688 77.222656 26.601562 78.140625 27.738281 78.140625 C 28.871094 78.140625 29.792969 77.222656 29.792969 76.085938 C 29.792969 74.953125 28.871094 74.035156 27.738281 74.035156 C 26.601562 74.035156 25.679688 74.953125 25.679688 76.085938 Z M 32.367188 101.019531 C 32.9375 102.003906 34.191406 102.339844 35.175781 101.773438 C 36.15625 101.207031 36.496094 99.949219 35.925781 98.96875 C 35.359375 97.984375 34.105469 97.648438 33.121094 98.214844 C 32.136719 98.78125 31.800781 100.039062 32.367188 101.019531 Z M 50.632812 119.273438 C 51.617188 119.839844 52.875 119.503906 53.441406 118.523438 C 54.011719 117.539062 53.671875 116.285156 52.691406 115.714844 C 51.707031 115.148438 50.449219 115.484375 49.882812 116.46875 C 49.316406 117.449219 49.652344 118.707031 50.632812 119.273438 Z M 75.589844 125.953125 C 76.722656 125.953125 77.644531 125.035156 77.644531 123.902344 C 77.644531 122.765625 76.722656 121.847656 75.589844 121.847656 C 74.453125 121.847656 73.53125 122.765625 73.53125 123.902344 C 73.53125 125.035156 74.453125 125.953125 75.589844 125.953125 Z M 100.542969 119.273438 C 101.523438 118.707031 101.859375 117.449219 101.292969 116.46875 C 100.726562 115.484375 99.46875 115.148438 98.484375 115.714844 C 97.503906 116.285156 97.164062 117.539062 97.734375 118.523438 C 98.300781 119.503906 99.558594 119.839844 100.542969 119.273438 Z M 118.808594 101.019531 C 119.375 100.039062 119.039062 98.78125 118.054688 98.214844 C 117.074219 97.648438 115.816406 97.984375 115.25 98.96875 C 114.679688 99.949219 115.019531 101.207031 116 101.773438 C 116.984375 102.339844 118.242188 102.003906 118.808594 101.019531 Z M 125.496094 76.085938 C 125.496094 74.953125 124.574219 74.035156 123.4375 74.035156 C 122.304688 74.035156 121.382812 74.953125 121.382812 76.085938 C 121.382812 77.222656 122.304688 78.140625 123.4375 78.140625 C 124.574219 78.140625 125.496094 77.222656 125.496094 76.085938 Z M 118.808594 51.152344 C 118.242188 50.171875 116.984375 49.835938 116 50.402344 C 115.019531 50.96875 114.679688 52.226562 115.25 53.207031 C 115.816406 54.191406 117.074219 54.527344 118.054688 53.957031 C 119.039062 53.390625 119.375 52.136719 118.808594 51.152344 Z M 100.542969 32.902344 C 99.558594 32.335938 98.300781 32.671875 97.734375 33.652344 C 97.164062 34.636719 97.503906 35.890625 98.484375 36.457031 C 99.46875 37.027344 100.726562 36.6875 101.292969 35.707031 C 101.859375 34.726562 101.523438 33.46875 100.542969 32.902344 Z M 70.5 27.71875 C 70.046875 27.765625 69.71875 28.171875 69.769531 28.621094 C 69.816406 29.074219 70.21875 29.402344 70.671875 29.351562 C 71.125 29.304688 71.453125 28.902344 71.402344 28.449219 C 71.355469 28 70.953125 27.671875 70.5 27.71875 Z M 65.46875 28.515625 C 65.023438 28.609375 64.742188 29.046875 64.835938 29.488281 C 64.929688 29.933594 65.367188 30.21875 65.808594 30.121094 C 66.253906 30.027344 66.539062 29.589844 66.445312 29.148438 C 66.347656 28.703125 65.914062 28.421875 65.46875 28.515625 Z M 60.546875 29.832031 C 60.113281 29.972656 59.878906 30.4375 60.019531 30.867188 C 60.160156 31.300781 60.625 31.535156 61.054688 31.394531 C 61.488281 31.253906 61.722656 30.792969 61.582031 30.359375 C 61.441406 29.929688 60.980469 29.691406 60.546875 29.832031 Z M 55.789062 31.65625 C 55.375 31.839844 55.1875 32.328125 55.375 32.742188 C 55.558594 33.15625 56.042969 33.34375 56.460938 33.15625 C 56.875 32.972656 57.0625 32.488281 56.875 32.074219 C 56.691406 31.660156 56.207031 31.472656 55.789062 31.65625 Z M 46.976562 36.742188 C 46.613281 37.007812 46.53125 37.519531 46.796875 37.886719 C 47.0625 38.253906 47.578125 38.335938 47.945312 38.070312 C 48.3125 37.804688 48.394531 37.289062 48.128906 36.921875 C 47.859375 36.554688 47.347656 36.472656 46.976562 36.742188 Z M 43.019531 39.945312 C 42.683594 40.25 42.65625 40.765625 42.957031 41.105469 C 43.261719 41.441406 43.78125 41.46875 44.121094 41.167969 C 44.457031 40.863281 44.484375 40.34375 44.179688 40.003906 C 43.875 39.667969 43.355469 39.640625 43.019531 39.945312 Z M 39.417969 43.542969 C 39.113281 43.882812 39.140625 44.402344 39.476562 44.703125 C 39.816406 45.007812 40.335938 44.980469 40.636719 44.644531 C 40.941406 44.304688 40.914062 43.789062 40.578125 43.484375 C 40.242188 43.179688 39.722656 43.207031 39.417969 43.542969 Z M 36.210938 47.5 C 35.941406 47.867188 36.023438 48.382812 36.390625 48.648438 C 36.761719 48.914062 37.273438 48.832031 37.542969 48.464844 C 37.808594 48.097656 37.726562 47.585938 37.359375 47.316406 C 36.992188 47.050781 36.476562 47.132812 36.210938 47.5 Z M 31.121094 56.304688 C 30.9375 56.71875 31.125 57.207031 31.539062 57.390625 C 31.953125 57.574219 32.441406 57.386719 32.625 56.972656 C 32.808594 56.558594 32.625 56.074219 32.207031 55.890625 C 31.792969 55.707031 31.308594 55.890625 31.121094 56.304688 Z M 29.296875 61.058594 C 29.15625 61.488281 29.394531 61.953125 29.824219 62.09375 C 30.257812 62.234375 30.71875 62 30.859375 61.566406 C 31 61.132812 30.765625 60.671875 30.332031 60.53125 C 29.902344 60.390625 29.4375 60.628906 29.296875 61.058594 Z M 27.980469 65.976562 C 27.882812 66.417969 28.167969 66.855469 28.613281 66.949219 C 29.054688 67.042969 29.492188 66.761719 29.585938 66.316406 C 29.679688 65.875 29.398438 65.4375 28.953125 65.34375 C 28.507812 65.25 28.074219 65.53125 27.980469 65.976562 Z M 27.183594 71.003906 C 27.132812 71.453125 27.460938 71.859375 27.914062 71.90625 C 28.363281 71.953125 28.769531 71.628906 28.816406 71.175781 C 28.863281 70.722656 28.535156 70.320312 28.085938 70.273438 C 27.632812 70.226562 27.226562 70.550781 27.183594 71.003906 Z M 27.183594 81.171875 C 27.226562 81.621094 27.632812 81.949219 28.085938 81.902344 C 28.535156 81.855469 28.863281 81.453125 28.816406 81 C 28.769531 80.546875 28.363281 80.222656 27.914062 80.269531 C 27.460938 80.316406 27.132812 80.71875 27.183594 81.171875 Z M 27.980469 86.199219 C 28.074219 86.644531 28.507812 86.925781 28.953125 86.832031 C 29.398438 86.738281 29.679688 86.300781 29.585938 85.855469 C 29.492188 85.414062 29.054688 85.132812 28.613281 85.226562 C 28.167969 85.320312 27.882812 85.753906 27.980469 86.199219 Z M 29.296875 91.117188 C 29.4375 91.546875 29.902344 91.785156 30.332031 91.644531 C 30.765625 91.503906 31 91.039062 30.859375 90.609375 C 30.71875 90.175781 30.257812 89.941406 29.824219 90.082031 C 29.394531 90.222656 29.15625 90.683594 29.296875 91.117188 Z M 31.121094 95.867188 C 31.308594 96.285156 31.792969 96.46875 32.207031 96.285156 C 32.625 96.101562 32.808594 95.613281 32.625 95.199219 C 32.441406 94.785156 31.953125 94.601562 31.539062 94.785156 C 31.125 94.96875 30.9375 95.453125 31.121094 95.867188 Z M 36.210938 104.675781 C 36.476562 105.042969 36.992188 105.125 37.359375 104.855469 C 37.726562 104.589844 37.808594 104.074219 37.542969 103.707031 C 37.273438 103.34375 36.761719 103.261719 36.390625 103.527344 C 36.023438 103.792969 35.941406 104.308594 36.210938 104.675781 Z M 39.417969 108.628906 C 39.722656 108.96875 40.242188 108.996094 40.578125 108.691406 C 40.914062 108.386719 40.941406 107.867188 40.636719 107.53125 C 40.335938 107.195312 39.816406 107.167969 39.476562 107.472656 C 39.140625 107.773438 39.113281 108.292969 39.417969 108.628906 Z M 43.019531 112.230469 C 43.355469 112.535156 43.875 112.507812 44.179688 112.167969 C 44.484375 111.832031 44.457031 111.3125 44.121094 111.007812 C 43.78125 110.707031 43.261719 110.734375 42.957031 111.070312 C 42.65625 111.40625 42.683594 111.925781 43.019531 112.230469 Z M 46.976562 115.433594 C 47.347656 115.699219 47.859375 115.621094 48.128906 115.253906 C 48.394531 114.886719 48.3125 114.371094 47.945312 114.105469 C 47.578125 113.839844 47.0625 113.921875 46.796875 114.285156 C 46.53125 114.652344 46.613281 115.167969 46.976562 115.433594 Z M 55.789062 120.515625 C 56.207031 120.703125 56.691406 120.515625 56.875 120.101562 C 57.0625 119.6875 56.875 119.203125 56.460938 119.015625 C 56.042969 118.832031 55.558594 119.019531 55.375 119.433594 C 55.1875 119.847656 55.375 120.332031 55.789062 120.515625 Z M 60.546875 122.34375 C 60.980469 122.480469 61.441406 122.246094 61.582031 121.816406 C 61.722656 121.382812 61.488281 120.917969 61.054688 120.78125 C 60.625 120.640625 60.160156 120.875 60.019531 121.308594 C 59.878906 121.738281 60.113281 122.203125 60.546875 122.34375 Z M 65.46875 123.660156 C 65.914062 123.753906 66.347656 123.472656 66.445312 123.027344 C 66.539062 122.582031 66.253906 122.148438 65.808594 122.050781 C 65.367188 121.957031 64.929688 122.242188 64.835938 122.6875 C 64.742188 123.128906 65.023438 123.566406 65.46875 123.660156 Z M 70.5 124.457031 C 70.953125 124.503906 71.355469 124.175781 71.402344 123.726562 C 71.453125 123.273438 71.125 122.871094 70.671875 122.820312 C 70.21875 122.773438 69.816406 123.101562 69.769531 123.554688 C 69.71875 124.003906 70.046875 124.410156 70.5 124.457031 Z M 80.675781 124.457031 C 81.128906 124.410156 81.457031 124.003906 81.40625 123.554688 C 81.359375 123.101562 80.957031 122.773438 80.503906 122.820312 C 80.050781 122.871094 79.722656 123.273438 79.773438 123.726562 C 79.820312 124.175781 80.222656 124.503906 80.675781 124.457031 Z M 85.707031 123.660156 C 86.152344 123.566406 86.433594 123.128906 86.339844 122.6875 C 86.246094 122.242188 85.808594 121.957031 85.367188 122.050781 C 84.921875 122.148438 84.636719 122.582031 84.730469 123.027344 C 84.828125 123.472656 85.265625 123.753906 85.707031 123.660156 Z M 90.628906 122.34375 C 91.0625 122.203125 91.296875 121.738281 91.15625 121.308594 C 91.015625 120.875 90.550781 120.640625 90.121094 120.78125 C 89.6875 120.917969 89.453125 121.382812 89.59375 121.816406 C 89.734375 122.246094 90.195312 122.480469 90.628906 122.34375 Z M 95.386719 120.515625 C 95.800781 120.332031 95.988281 119.847656 95.800781 119.433594 C 95.617188 119.019531 95.132812 118.832031 94.71875 119.015625 C 94.300781 119.203125 94.113281 119.6875 94.300781 120.101562 C 94.484375 120.515625 94.96875 120.703125 95.386719 120.515625 Z M 104.199219 115.433594 C 104.566406 115.167969 104.644531 114.652344 104.378906 114.285156 C 104.113281 113.921875 103.597656 113.839844 103.230469 114.105469 C 102.863281 114.371094 102.78125 114.886719 103.050781 115.253906 C 103.316406 115.621094 103.832031 115.699219 104.199219 115.433594 Z M 108.15625 112.230469 C 108.496094 111.925781 108.519531 111.40625 108.21875 111.070312 C 107.914062 110.734375 107.394531 110.707031 107.054688 111.007812 C 106.71875 111.3125 106.691406 111.832031 106.996094 112.167969 C 107.300781 112.507812 107.820312 112.535156 108.15625 112.230469 Z M 111.757812 108.628906 C 112.0625 108.292969 112.035156 107.773438 111.699219 107.472656 C 111.359375 107.167969 110.839844 107.195312 110.539062 107.53125 C 110.234375 107.867188 110.261719 108.386719 110.597656 108.691406 C 110.933594 108.996094 111.457031 108.96875 111.757812 108.628906 Z M 114.964844 104.675781 C 115.234375 104.308594 115.152344 103.792969 114.785156 103.527344 C 114.414062 103.261719 113.902344 103.34375 113.632812 103.707031 C 113.367188 104.074219 113.449219 104.589844 113.816406 104.855469 C 114.183594 105.125 114.699219 105.042969 114.964844 104.675781 Z M 120.054688 95.867188 C 120.238281 95.453125 120.050781 94.96875 119.636719 94.785156 C 119.222656 94.601562 118.734375 94.785156 118.550781 95.199219 C 118.367188 95.613281 118.554688 96.101562 118.96875 96.285156 C 119.382812 96.46875 119.867188 96.285156 120.054688 95.867188 Z M 121.878906 91.117188 C 122.019531 90.683594 121.78125 90.222656 121.351562 90.082031 C 120.917969 89.941406 120.457031 90.175781 120.316406 90.609375 C 120.175781 91.039062 120.410156 91.503906 120.84375 91.644531 C 121.273438 91.785156 121.738281 91.546875 121.878906 91.117188 Z M 123.195312 86.199219 C 123.292969 85.753906 123.007812 85.320312 122.5625 85.226562 C 122.121094 85.132812 121.683594 85.414062 121.589844 85.855469 C 121.496094 86.300781 121.777344 86.738281 122.222656 86.832031 C 122.667969 86.925781 123.101562 86.644531 123.195312 86.199219 Z M 123.996094 81.171875 C 124.042969 80.71875 123.714844 80.316406 123.261719 80.269531 C 122.8125 80.222656 122.40625 80.546875 122.359375 81 C 122.3125 81.453125 122.640625 81.855469 123.089844 81.902344 C 123.542969 81.949219 123.949219 81.621094 123.996094 81.171875 Z M 123.996094 71.003906 C 123.949219 70.550781 123.542969 70.226562 123.089844 70.273438 C 122.640625 70.320312 122.3125 70.722656 122.359375 71.175781 C 122.40625 71.628906 122.8125 71.953125 123.261719 71.90625 C 123.714844 71.859375 124.042969 71.453125 123.996094 71.003906 Z M 123.195312 65.976562 C 123.101562 65.53125 122.667969 65.25 122.222656 65.34375 C 121.777344 65.4375 121.496094 65.875 121.589844 66.316406 C 121.683594 66.761719 122.121094 67.042969 122.5625 66.949219 C 123.007812 66.855469 123.292969 66.417969 123.195312 65.976562 Z M 121.878906 61.058594 C 121.738281 60.628906 121.273438 60.390625 120.84375 60.53125 C 120.410156 60.671875 120.175781 61.132812 120.316406 61.566406 C 120.457031 62 120.917969 62.234375 121.351562 62.09375 C 121.78125 61.953125 122.019531 61.488281 121.878906 61.058594 Z M 120.054688 56.304688 C 119.867188 55.890625 119.382812 55.707031 118.96875 55.890625 C 118.554688 56.074219 118.367188 56.558594 118.550781 56.972656 C 118.734375 57.386719 119.222656 57.574219 119.636719 57.390625 C 120.050781 57.207031 120.238281 56.71875 120.054688 56.304688 Z M 114.964844 47.5 C 114.699219 47.132812 114.183594 47.050781 113.816406 47.316406 C 113.449219 47.585938 113.367188 48.097656 113.632812 48.464844 C 113.902344 48.832031 114.414062 48.914062 114.785156 48.648438 C 115.152344 48.382812 115.234375 47.867188 114.964844 47.5 Z M 111.757812 43.542969 C 111.457031 43.207031 110.933594 43.179688 110.597656 43.484375 C 110.261719 43.789062 110.234375 44.304688 110.539062 44.644531 C 110.839844 44.980469 111.359375 45.007812 111.699219 44.703125 C 112.035156 44.402344 112.0625 43.882812 111.757812 43.542969 Z M 108.15625 39.945312 C 107.820312 39.640625 107.300781 39.667969 106.996094 40.003906 C 106.691406 40.34375 106.71875 40.863281 107.054688 41.167969 C 107.394531 41.46875 107.914062 41.441406 108.21875 41.105469 C 108.519531 40.765625 108.496094 40.25 108.15625 39.945312 Z M 104.199219 36.742188 C 103.832031 36.472656 103.316406 36.554688 103.050781 36.921875 C 102.78125 37.289062 102.863281 37.804688 103.230469 38.070312 C 103.597656 38.335938 104.113281 38.253906 104.378906 37.886719 C 104.644531 37.519531 104.566406 37.007812 104.199219 36.742188 Z M 95.386719 31.65625 C 94.96875 31.472656 94.484375 31.660156 94.300781 32.074219 C 94.113281 32.488281 94.300781 32.972656 94.71875 33.15625 C 95.132812 33.34375 95.617188 33.15625 95.800781 32.742188 C 95.988281 32.328125 95.800781 31.839844 95.386719 31.65625 Z M 90.628906 29.832031 C 90.195312 29.691406 89.734375 29.929688 89.59375 30.359375 C 89.453125 30.792969 89.6875 31.253906 90.121094 31.394531 C 90.550781 31.535156 91.015625 31.300781 91.15625 30.867188 C 91.296875 30.4375 91.0625 29.972656 90.628906 29.832031 Z M 85.707031 28.515625 C 85.265625 28.421875 84.828125 28.703125 84.730469 29.148438 C 84.636719 29.589844 84.921875 30.027344 85.367188 30.121094 C 85.808594 30.21875 86.246094 29.933594 86.339844 29.488281 C 86.433594 29.046875 86.152344 28.609375 85.707031 28.515625 Z M 80.675781 27.71875 C 80.222656 27.671875 79.820312 28 79.773438 28.449219 C 79.722656 28.902344 80.050781 29.304688 80.503906 29.351562 C 80.957031 29.402344 81.359375 29.074219 81.40625 28.621094 C 81.457031 28.171875 81.128906 27.765625 80.675781 27.71875 Z M 54.945312 86.136719 L 55.589844 83.082031 L 43.503906 83.082031 C 43.910156 82.34375 44.515625 81.558594 45.320312 80.726562 C 46.125 79.890625 47.347656 78.824219 48.996094 77.523438 C 52.828125 74.492188 55.132812 72.460938 55.921875 71.429688 C 57.195312 69.773438 57.835938 68.050781 57.835938 66.257812 C 57.835938 65.03125 57.523438 63.839844 56.898438 62.6875 C 56.269531 61.535156 55.335938 60.640625 54.085938 60 C 52.839844 59.363281 51.449219 59.042969 49.914062 59.042969 C 47.617188 59.042969 45.699219 59.734375 44.160156 61.117188 C 42.617188 62.496094 41.6875 64.382812 41.367188 66.773438 L 44.628906 67.253906 C 45.035156 65.316406 45.710938 63.90625 46.65625 63.027344 C 47.601562 62.152344 48.707031 61.714844 49.96875 61.714844 C 51.25 61.714844 52.324219 62.144531 53.203125 63.011719 C 54.082031 63.875 54.519531 64.929688 54.519531 66.167969 C 54.519531 66.902344 54.378906 67.585938 54.097656 68.210938 C 53.679688 69.128906 53.011719 70.070312 52.089844 71.027344 C 51.449219 71.6875 50.261719 72.714844 48.515625 74.101562 C 45.640625 76.394531 43.703125 78.03125 42.695312 79.003906 C 41.6875 79.980469 40.882812 81.011719 40.273438 82.097656 C 39.664062 83.183594 39.1875 84.53125 38.84375 86.136719 Z M 72.222656 86.136719 L 73.675781 79.253906 L 77.472656 79.253906 L 78.078125 76.308594 L 74.285156 76.308594 L 77.875 59.15625 L 75.152344 59.15625 L 60.027344 75.960938 L 59.328125 79.253906 L 70.34375 79.253906 L 68.886719 86.136719 Z M 63.25 76.308594 L 73.308594 65.042969 L 70.949219 76.308594 Z M 80.175781 86.578125 L 94.6875 58.695312 L 91.796875 58.695312 L 77.28125 86.578125 Z M 100.441406 86.136719 C 101.375 81.71875 103.113281 77.175781 105.65625 72.5 C 107.839844 68.449219 110.394531 65.144531 113.316406 62.578125 L 113.941406 59.523438 L 96.703125 59.523438 L 96.058594 62.578125 L 109.523438 62.578125 C 107.25 64.761719 105.1875 67.371094 103.332031 70.410156 C 101.480469 73.445312 99.980469 76.503906 98.839844 79.585938 C 97.882812 82.136719 97.253906 84.320312 96.960938 86.136719 L 100.441406 86.136719 " fill-opacity="1" fill-rule="evenodd"/></g></svg>