<svg xmlns="http://www.w3.org/2000/svg" xmlns:xlink="http://www.w3.org/1999/xlink" width="500" zoomAndPan="magnify" viewBox="0 0 375 374.999991" height="500" preserveAspectRatio="xMidYMid meet" version="1.0"><defs><g/><clipPath id="35e4768658"><path d="M 122.28125 87 L 247 87 L 247 194 L 122.28125 194 Z M 122.28125 87 " clip-rule="nonzero"/></clipPath><clipPath id="b32bb3c6fa"><path d="M 191 153 L 252.78125 153 L 252.78125 194.640625 L 191 194.640625 Z M 191 153 " clip-rule="nonzero"/></clipPath></defs><rect x="-37.5" width="450" fill="#ffffff" y="-37.499999" height="449.999989" fill-opacity="1"/><rect x="-37.5" width="450" fill="#000000" y="-37.499999" height="449.999989" fill-opacity="1"/><g fill="#ffffff" fill-opacity="1"><g transform="translate(126.214891, 238.337783)"><g><path d="M 20.09375 -19.859375 C 18.71875 -20.703125 17.3125 -21.351562 15.875 -21.8125 C 14.4375 -22.269531 13.171875 -22.5 12.078125 -22.5 C 10.847656 -22.5 9.875 -22.269531 9.15625 -21.8125 C 8.445312 -21.351562 8.09375 -20.71875 8.09375 -19.90625 C 8.09375 -19.164062 8.34375 -18.546875 8.84375 -18.046875 C 9.34375 -17.554688 9.96875 -17.148438 10.71875 -16.828125 C 11.46875 -16.503906 12.492188 -16.15625 13.796875 -15.78125 C 15.597656 -15.238281 17.078125 -14.703125 18.234375 -14.171875 C 19.398438 -13.640625 20.390625 -12.847656 21.203125 -11.796875 C 22.015625 -10.753906 22.421875 -9.378906 22.421875 -7.671875 C 22.421875 -6.046875 21.984375 -4.628906 21.109375 -3.421875 C 20.234375 -2.210938 19.023438 -1.285156 17.484375 -0.640625 C 15.941406 -0.00390625 14.175781 0.3125 12.1875 0.3125 C 10.09375 0.3125 8.050781 -0.078125 6.0625 -0.859375 C 4.082031 -1.640625 2.351562 -2.675781 0.875 -3.96875 L 3.015625 -8.328125 C 4.367188 -7.078125 5.882812 -6.09375 7.5625 -5.375 C 9.238281 -4.664062 10.804688 -4.3125 12.265625 -4.3125 C 13.691406 -4.3125 14.8125 -4.582031 15.625 -5.125 C 16.4375 -5.675781 16.84375 -6.425781 16.84375 -7.375 C 16.84375 -8.132812 16.59375 -8.765625 16.09375 -9.265625 C 15.601562 -9.765625 14.972656 -10.164062 14.203125 -10.46875 C 13.441406 -10.769531 12.398438 -11.113281 11.078125 -11.5 C 9.265625 -12.03125 7.785156 -12.550781 6.640625 -13.0625 C 5.492188 -13.570312 4.515625 -14.34375 3.703125 -15.375 C 2.890625 -16.40625 2.484375 -17.765625 2.484375 -19.453125 C 2.484375 -21.003906 2.894531 -22.359375 3.71875 -23.515625 C 4.550781 -24.671875 5.722656 -25.566406 7.234375 -26.203125 C 8.753906 -26.835938 10.507812 -27.15625 12.5 -27.15625 C 14.226562 -27.15625 15.9375 -26.898438 17.625 -26.390625 C 19.320312 -25.890625 20.832031 -25.203125 22.15625 -24.328125 Z M 20.09375 -19.859375 "/></g></g></g><g fill="#ffffff" fill-opacity="1"><g transform="translate(150.206409, 238.337783)"><g><path d="M 3.28125 0 L 3.28125 -26.75 L 8.40625 -26.75 L 8.40625 -15.3125 L 21.734375 -15.3125 L 21.734375 -26.75 L 26.859375 -26.75 L 26.859375 0 L 21.734375 0 L 21.734375 -10.84375 L 8.40625 -10.84375 L 8.40625 0 Z M 3.28125 0 "/></g></g></g><g fill="#ffffff" fill-opacity="1"><g transform="translate(180.386823, 238.337783)"><g><path d="M 15.4375 -27.09375 C 18.082031 -27.09375 20.492188 -26.492188 22.671875 -25.296875 C 24.847656 -24.097656 26.5625 -22.453125 27.8125 -20.359375 C 29.0625 -18.273438 29.6875 -15.957031 29.6875 -13.40625 C 29.6875 -10.863281 29.0625 -8.539062 27.8125 -6.4375 C 26.5625 -4.332031 24.847656 -2.671875 22.671875 -1.453125 C 20.492188 -0.234375 18.082031 0.375 15.4375 0.375 C 12.789062 0.375 10.375 -0.234375 8.1875 -1.453125 C 6.007812 -2.671875 4.296875 -4.332031 3.046875 -6.4375 C 1.804688 -8.539062 1.1875 -10.863281 1.1875 -13.40625 C 1.1875 -15.957031 1.804688 -18.273438 3.046875 -20.359375 C 4.296875 -22.453125 6.007812 -24.097656 8.1875 -25.296875 C 10.375 -26.492188 12.789062 -27.09375 15.4375 -27.09375 Z M 15.515625 -22.5 C 13.878906 -22.5 12.359375 -22.097656 10.953125 -21.296875 C 9.554688 -20.492188 8.453125 -19.398438 7.640625 -18.015625 C 6.828125 -16.628906 6.421875 -15.09375 6.421875 -13.40625 C 6.421875 -11.726562 6.832031 -10.1875 7.65625 -8.78125 C 8.488281 -7.382812 9.597656 -6.273438 10.984375 -5.453125 C 12.367188 -4.640625 13.878906 -4.234375 15.515625 -4.234375 C 17.117188 -4.234375 18.609375 -4.640625 19.984375 -5.453125 C 21.359375 -6.273438 22.445312 -7.382812 23.25 -8.78125 C 24.050781 -10.1875 24.453125 -11.726562 24.453125 -13.40625 C 24.453125 -15.09375 24.050781 -16.628906 23.25 -18.015625 C 22.445312 -19.398438 21.359375 -20.492188 19.984375 -21.296875 C 18.609375 -22.097656 17.117188 -22.5 15.515625 -22.5 Z M 15.515625 -22.5 "/></g></g></g><g fill="#ffffff" fill-opacity="1"><g transform="translate(211.293102, 238.337783)"><g><path d="M 14.25 -26.75 C 17.613281 -26.75 20.21875 -25.941406 22.0625 -24.328125 C 23.90625 -22.722656 24.828125 -20.457031 24.828125 -17.53125 C 24.828125 -14.476562 23.90625 -12.101562 22.0625 -10.40625 C 20.21875 -8.71875 17.613281 -7.875 14.25 -7.875 L 8.40625 -7.875 L 8.40625 0 L 3.28125 0 L 3.28125 -26.75 Z M 13.984375 -12.375 C 15.921875 -12.375 17.40625 -12.796875 18.4375 -13.640625 C 19.46875 -14.484375 19.984375 -15.726562 19.984375 -17.375 C 19.984375 -19.007812 19.46875 -20.234375 18.4375 -21.046875 C 17.40625 -21.859375 15.921875 -22.265625 13.984375 -22.265625 L 8.40625 -22.265625 L 8.40625 -12.375 Z M 13.984375 -12.375 "/></g></g></g><g fill="#ffffff" fill-opacity="1"><g transform="translate(237.080163, 238.337783)"><g><path d="M 3.28125 0 L 3.28125 -26.75 L 8.40625 -26.75 L 8.40625 0 Z M 3.28125 0 "/></g></g></g><g fill="#ffffff" fill-opacity="1"><g transform="translate(50.781302, 272.83778)"><g><path d="M 3.28125 0 L 3.28125 -26.75 L 22.890625 -26.75 L 22.890625 -22.265625 L 8.40625 -22.265625 L 8.40625 -15.65625 L 21.390625 -15.65625 L 21.390625 -11.1875 L 8.40625 -11.1875 L 8.40625 -4.46875 L 23.34375 -4.46875 L 23.34375 0 Z M 3.28125 0 "/></g></g></g><g fill="#ffffff" fill-opacity="1"><g transform="translate(76.033524, 272.83778)"><g><path d="M 2.25 -9.9375 L 2.25 -13.375 L 11.84375 -13.375 L 11.84375 -9.9375 Z M 2.25 -9.9375 "/></g></g></g><g fill="#ffffff" fill-opacity="1"><g transform="translate(90.168659, 272.83778)"><g><path d="M 22.65625 -19.03125 C 21.707031 -20.125 20.585938 -20.972656 19.296875 -21.578125 C 18.015625 -22.191406 16.710938 -22.5 15.390625 -22.5 C 13.734375 -22.5 12.21875 -22.101562 10.84375 -21.3125 C 9.46875 -20.53125 8.382812 -19.441406 7.59375 -18.046875 C 6.8125 -16.660156 6.421875 -15.140625 6.421875 -13.484375 C 6.421875 -11.828125 6.8125 -10.304688 7.59375 -8.921875 C 8.382812 -7.535156 9.46875 -6.441406 10.84375 -5.640625 C 12.21875 -4.835938 13.734375 -4.4375 15.390625 -4.4375 C 16.671875 -4.4375 17.953125 -4.710938 19.234375 -5.265625 C 20.523438 -5.828125 21.664062 -6.609375 22.65625 -7.609375 L 25.671875 -4.234375 C 24.273438 -2.804688 22.644531 -1.679688 20.78125 -0.859375 C 18.925781 -0.0351562 17.039062 0.375 15.125 0.375 C 12.550781 0.375 10.195312 -0.234375 8.0625 -1.453125 C 5.925781 -2.671875 4.242188 -4.332031 3.015625 -6.4375 C 1.796875 -8.539062 1.1875 -10.863281 1.1875 -13.40625 C 1.1875 -15.957031 1.804688 -18.273438 3.046875 -20.359375 C 4.296875 -22.453125 6 -24.097656 8.15625 -25.296875 C 10.3125 -26.492188 12.695312 -27.09375 15.3125 -27.09375 C 17.226562 -27.09375 19.101562 -26.707031 20.9375 -25.9375 C 22.769531 -25.175781 24.335938 -24.117188 25.640625 -22.765625 Z M 22.65625 -19.03125 "/></g></g></g><g fill="#ffffff" fill-opacity="1"><g transform="translate(116.757986, 272.83778)"><g><path d="M 15.4375 -27.09375 C 18.082031 -27.09375 20.492188 -26.492188 22.671875 -25.296875 C 24.847656 -24.097656 26.5625 -22.453125 27.8125 -20.359375 C 29.0625 -18.273438 29.6875 -15.957031 29.6875 -13.40625 C 29.6875 -10.863281 29.0625 -8.539062 27.8125 -6.4375 C 26.5625 -4.332031 24.847656 -2.671875 22.671875 -1.453125 C 20.492188 -0.234375 18.082031 0.375 15.4375 0.375 C 12.789062 0.375 10.375 -0.234375 8.1875 -1.453125 C 6.007812 -2.671875 4.296875 -4.332031 3.046875 -6.4375 C 1.804688 -8.539062 1.1875 -10.863281 1.1875 -13.40625 C 1.1875 -15.957031 1.804688 -18.273438 3.046875 -20.359375 C 4.296875 -22.453125 6.007812 -24.097656 8.1875 -25.296875 C 10.375 -26.492188 12.789062 -27.09375 15.4375 -27.09375 Z M 15.515625 -22.5 C 13.878906 -22.5 12.359375 -22.097656 10.953125 -21.296875 C 9.554688 -20.492188 8.453125 -19.398438 7.640625 -18.015625 C 6.828125 -16.628906 6.421875 -15.09375 6.421875 -13.40625 C 6.421875 -11.726562 6.832031 -10.1875 7.65625 -8.78125 C 8.488281 -7.382812 9.597656 -6.273438 10.984375 -5.453125 C 12.367188 -4.640625 13.878906 -4.234375 15.515625 -4.234375 C 17.117188 -4.234375 18.609375 -4.640625 19.984375 -5.453125 C 21.359375 -6.273438 22.445312 -7.382812 23.25 -8.78125 C 24.050781 -10.1875 24.453125 -11.726562 24.453125 -13.40625 C 24.453125 -15.09375 24.050781 -16.628906 23.25 -18.015625 C 22.445312 -19.398438 21.359375 -20.492188 19.984375 -21.296875 C 18.609375 -22.097656 17.117188 -22.5 15.515625 -22.5 Z M 15.515625 -22.5 "/></g></g></g><g fill="#ffffff" fill-opacity="1"><g transform="translate(147.664264, 272.83778)"><g><path d="M 3.28125 0 L 3.28125 -26.75 L 9.125 -26.75 L 18 -9.515625 L 26.78125 -26.75 L 32.625 -26.75 L 32.625 0 L 27.921875 0 L 27.921875 -19.171875 L 19.59375 -2.75 L 16.3125 -2.75 L 7.953125 -19.171875 L 7.953125 0 Z M 3.28125 0 "/></g></g></g><g fill="#ffffff" fill-opacity="1"><g transform="translate(183.575136, 272.83778)"><g><path d="M 3.28125 0 L 3.28125 -26.75 L 9.125 -26.75 L 18 -9.515625 L 26.78125 -26.75 L 32.625 -26.75 L 32.625 0 L 27.921875 0 L 27.921875 -19.171875 L 19.59375 -2.75 L 16.3125 -2.75 L 7.953125 -19.171875 L 7.953125 0 Z M 3.28125 0 "/></g></g></g><g fill="#ffffff" fill-opacity="1"><g transform="translate(219.486007, 272.83778)"><g><path d="M 3.28125 0 L 3.28125 -26.75 L 22.890625 -26.75 L 22.890625 -22.265625 L 8.40625 -22.265625 L 8.40625 -15.65625 L 21.390625 -15.65625 L 21.390625 -11.1875 L 8.40625 -11.1875 L 8.40625 -4.46875 L 23.34375 -4.46875 L 23.34375 0 Z M 3.28125 0 "/></g></g></g><g fill="#ffffff" fill-opacity="1"><g transform="translate(244.73823, 272.83778)"><g><path d="M 25.859375 0 L 20.015625 0 L 15.390625 -7.90625 C 15.191406 -7.882812 14.875 -7.875 14.4375 -7.875 L 8.40625 -7.875 L 8.40625 0 L 3.28125 0 L 3.28125 -26.75 L 14.4375 -26.75 C 17.90625 -26.75 20.582031 -25.941406 22.46875 -24.328125 C 24.351562 -22.722656 25.296875 -20.457031 25.296875 -17.53125 C 25.296875 -15.445312 24.84375 -13.664062 23.9375 -12.1875 C 23.03125 -10.707031 21.710938 -9.597656 19.984375 -8.859375 Z M 8.40625 -22.265625 L 8.40625 -12.375 L 14.4375 -12.375 C 16.375 -12.375 17.851562 -12.796875 18.875 -13.640625 C 19.894531 -14.484375 20.40625 -15.726562 20.40625 -17.375 C 20.40625 -19.007812 19.894531 -20.234375 18.875 -21.046875 C 17.851562 -21.859375 16.375 -22.265625 14.4375 -22.265625 Z M 8.40625 -22.265625 "/></g></g></g><g fill="#ffffff" fill-opacity="1"><g transform="translate(272.359047, 272.83778)"><g><path d="M 22.65625 -19.03125 C 21.707031 -20.125 20.585938 -20.972656 19.296875 -21.578125 C 18.015625 -22.191406 16.710938 -22.5 15.390625 -22.5 C 13.734375 -22.5 12.21875 -22.101562 10.84375 -21.3125 C 9.46875 -20.53125 8.382812 -19.441406 7.59375 -18.046875 C 6.8125 -16.660156 6.421875 -15.140625 6.421875 -13.484375 C 6.421875 -11.828125 6.8125 -10.304688 7.59375 -8.921875 C 8.382812 -7.535156 9.46875 -6.441406 10.84375 -5.640625 C 12.21875 -4.835938 13.734375 -4.4375 15.390625 -4.4375 C 16.671875 -4.4375 17.953125 -4.710938 19.234375 -5.265625 C 20.523438 -5.828125 21.664062 -6.609375 22.65625 -7.609375 L 25.671875 -4.234375 C 24.273438 -2.804688 22.644531 -1.679688 20.78125 -0.859375 C 18.925781 -0.0351562 17.039062 0.375 15.125 0.375 C 12.550781 0.375 10.195312 -0.234375 8.0625 -1.453125 C 5.925781 -2.671875 4.242188 -4.332031 3.015625 -6.4375 C 1.796875 -8.539062 1.1875 -10.863281 1.1875 -13.40625 C 1.1875 -15.957031 1.804688 -18.273438 3.046875 -20.359375 C 4.296875 -22.453125 6 -24.097656 8.15625 -25.296875 C 10.3125 -26.492188 12.695312 -27.09375 15.3125 -27.09375 C 17.226562 -27.09375 19.101562 -26.707031 20.9375 -25.9375 C 22.769531 -25.175781 24.335938 -24.117188 25.640625 -22.765625 Z M 22.65625 -19.03125 "/></g></g></g><g fill="#ffffff" fill-opacity="1"><g transform="translate(298.948386, 272.83778)"><g><path d="M 3.28125 0 L 3.28125 -26.75 L 22.890625 -26.75 L 22.890625 -22.265625 L 8.40625 -22.265625 L 8.40625 -15.65625 L 21.390625 -15.65625 L 21.390625 -11.1875 L 8.40625 -11.1875 L 8.40625 -4.46875 L 23.34375 -4.46875 L 23.34375 0 Z M 3.28125 0 "/></g></g></g><g fill="#00f1ff" fill-opacity="1"><g transform="translate(90.021063, 292.718302)"><g><path d="M 1.609375 -9.859375 L 2.65625 -9.859375 L 2.65625 0 L 1.609375 0 Z M 1.609375 -9.859375 "/></g></g></g><g fill="#00f1ff" fill-opacity="1"><g transform="translate(94.275004, 292.718302)"><g><path d="M 9.84375 -9.859375 L 9.84375 0 L 8.984375 0 L 2.65625 -8 L 2.65625 0 L 1.609375 0 L 1.609375 -9.859375 L 2.46875 -9.859375 L 8.828125 -1.859375 L 8.828125 -9.859375 Z M 9.84375 -9.859375 "/></g></g></g><g fill="#00f1ff" fill-opacity="1"><g transform="translate(105.726831, 292.718302)"><g><path d="M 8.5625 -4.9375 L 9.5625 -4.9375 L 9.5625 -1.171875 C 9.09375 -0.765625 8.539062 -0.453125 7.90625 -0.234375 C 7.28125 -0.0234375 6.625 0.078125 5.9375 0.078125 C 4.945312 0.078125 4.054688 -0.132812 3.265625 -0.5625 C 2.472656 -1 1.851562 -1.597656 1.40625 -2.359375 C 0.957031 -3.128906 0.734375 -3.988281 0.734375 -4.9375 C 0.734375 -5.882812 0.957031 -6.738281 1.40625 -7.5 C 1.851562 -8.269531 2.472656 -8.867188 3.265625 -9.296875 C 4.054688 -9.734375 4.953125 -9.953125 5.953125 -9.953125 C 6.703125 -9.953125 7.390625 -9.832031 8.015625 -9.59375 C 8.648438 -9.351562 9.179688 -9 9.609375 -8.53125 L 8.96875 -7.859375 C 8.1875 -8.628906 7.191406 -9.015625 5.984375 -9.015625 C 5.191406 -9.015625 4.472656 -8.835938 3.828125 -8.484375 C 3.179688 -8.140625 2.675781 -7.65625 2.3125 -7.03125 C 1.945312 -6.40625 1.765625 -5.707031 1.765625 -4.9375 C 1.765625 -4.164062 1.945312 -3.46875 2.3125 -2.84375 C 2.675781 -2.226562 3.175781 -1.738281 3.8125 -1.375 C 4.457031 -1.019531 5.175781 -0.84375 5.96875 -0.84375 C 6.988281 -0.84375 7.851562 -1.097656 8.5625 -1.609375 Z M 8.5625 -4.9375 "/></g></g></g><g fill="#00f1ff" fill-opacity="1"><g transform="translate(116.61522, 292.718302)"><g><path d="M 1.5 0.078125 C 1.289062 0.078125 1.113281 0.00390625 0.96875 -0.140625 C 0.820312 -0.296875 0.75 -0.484375 0.75 -0.703125 C 0.75 -0.921875 0.820312 -1.101562 0.96875 -1.25 C 1.113281 -1.394531 1.289062 -1.46875 1.5 -1.46875 C 1.695312 -1.46875 1.867188 -1.394531 2.015625 -1.25 C 2.171875 -1.101562 2.25 -0.921875 2.25 -0.703125 C 2.25 -0.484375 2.171875 -0.296875 2.015625 -0.140625 C 1.867188 0.00390625 1.695312 0.078125 1.5 0.078125 Z M 1.5 0.078125 "/></g></g></g><g fill="#00f1ff" fill-opacity="1"><g transform="translate(119.601429, 292.718302)"><g/></g></g><g fill="#00f1ff" fill-opacity="1"><g transform="translate(123.291931, 292.718302)"><g><path d="M 5.890625 0.078125 C 4.910156 0.078125 4.03125 -0.132812 3.25 -0.5625 C 2.46875 -1 1.851562 -1.597656 1.40625 -2.359375 C 0.957031 -3.128906 0.734375 -3.988281 0.734375 -4.9375 C 0.734375 -5.882812 0.957031 -6.738281 1.40625 -7.5 C 1.851562 -8.269531 2.46875 -8.867188 3.25 -9.296875 C 4.039062 -9.734375 4.925781 -9.953125 5.90625 -9.953125 C 6.632812 -9.953125 7.304688 -9.828125 7.921875 -9.578125 C 8.546875 -9.335938 9.078125 -8.984375 9.515625 -8.515625 L 8.84375 -7.84375 C 8.070312 -8.625 7.101562 -9.015625 5.9375 -9.015625 C 5.15625 -9.015625 4.441406 -8.835938 3.796875 -8.484375 C 3.160156 -8.128906 2.660156 -7.640625 2.296875 -7.015625 C 1.941406 -6.398438 1.765625 -5.707031 1.765625 -4.9375 C 1.765625 -4.164062 1.941406 -3.46875 2.296875 -2.84375 C 2.660156 -2.226562 3.160156 -1.738281 3.796875 -1.375 C 4.441406 -1.019531 5.15625 -0.84375 5.9375 -0.84375 C 7.113281 -0.84375 8.082031 -1.238281 8.84375 -2.03125 L 9.515625 -1.359375 C 9.078125 -0.890625 8.546875 -0.53125 7.921875 -0.28125 C 7.296875 -0.0390625 6.617188 0.078125 5.890625 0.078125 Z M 5.890625 0.078125 "/></g></g></g><g fill="#00f1ff" fill-opacity="1"><g transform="translate(133.419689, 292.718302)"><g><path d="M 7.796875 -2.640625 L 2.296875 -2.640625 L 1.109375 0 L 0.03125 0 L 4.53125 -9.859375 L 5.5625 -9.859375 L 10.078125 0 L 8.984375 0 Z M 7.40625 -3.484375 L 5.046875 -8.78125 L 2.671875 -3.484375 Z M 7.40625 -3.484375 "/></g></g></g><g fill="#00f1ff" fill-opacity="1"><g transform="translate(143.519271, 292.718302)"><g><path d="M 8.34375 0 L 6.09375 -3.171875 C 5.832031 -3.140625 5.566406 -3.125 5.296875 -3.125 L 2.65625 -3.125 L 2.65625 0 L 1.609375 0 L 1.609375 -9.859375 L 5.296875 -9.859375 C 6.554688 -9.859375 7.539062 -9.554688 8.25 -8.953125 C 8.96875 -8.359375 9.328125 -7.535156 9.328125 -6.484375 C 9.328125 -5.710938 9.128906 -5.0625 8.734375 -4.53125 C 8.347656 -4 7.796875 -3.613281 7.078125 -3.375 L 9.484375 0 Z M 5.265625 -4.015625 C 6.242188 -4.015625 6.988281 -4.226562 7.5 -4.65625 C 8.019531 -5.09375 8.28125 -5.703125 8.28125 -6.484375 C 8.28125 -7.285156 8.019531 -7.898438 7.5 -8.328125 C 6.988281 -8.753906 6.242188 -8.96875 5.265625 -8.96875 L 2.65625 -8.96875 L 2.65625 -4.015625 Z M 5.265625 -4.015625 "/></g></g></g><g fill="#00f1ff" fill-opacity="1"><g transform="translate(153.703367, 292.718302)"><g><path d="M 1.609375 -9.859375 L 2.65625 -9.859375 L 2.65625 -0.90625 L 8.171875 -0.90625 L 8.171875 0 L 1.609375 0 Z M 1.609375 -9.859375 "/></g></g></g><g fill="#00f1ff" fill-opacity="1"><g transform="translate(161.999956, 292.718302)"><g><path d="M 5.921875 0.078125 C 4.941406 0.078125 4.054688 -0.132812 3.265625 -0.5625 C 2.472656 -1 1.851562 -1.597656 1.40625 -2.359375 C 0.957031 -3.128906 0.734375 -3.988281 0.734375 -4.9375 C 0.734375 -5.882812 0.957031 -6.738281 1.40625 -7.5 C 1.851562 -8.257812 2.472656 -8.859375 3.265625 -9.296875 C 4.054688 -9.734375 4.941406 -9.953125 5.921875 -9.953125 C 6.898438 -9.953125 7.78125 -9.734375 8.5625 -9.296875 C 9.34375 -8.867188 9.957031 -8.269531 10.40625 -7.5 C 10.863281 -6.738281 11.09375 -5.882812 11.09375 -4.9375 C 11.09375 -3.988281 10.863281 -3.128906 10.40625 -2.359375 C 9.957031 -1.597656 9.34375 -1 8.5625 -0.5625 C 7.78125 -0.132812 6.898438 0.078125 5.921875 0.078125 Z M 5.921875 -0.84375 C 6.703125 -0.84375 7.40625 -1.019531 8.03125 -1.375 C 8.664062 -1.726562 9.160156 -2.21875 9.515625 -2.84375 C 9.867188 -3.46875 10.046875 -4.164062 10.046875 -4.9375 C 10.046875 -5.707031 9.867188 -6.40625 9.515625 -7.03125 C 9.160156 -7.65625 8.664062 -8.140625 8.03125 -8.484375 C 7.40625 -8.835938 6.703125 -9.015625 5.921875 -9.015625 C 5.140625 -9.015625 4.429688 -8.835938 3.796875 -8.484375 C 3.160156 -8.140625 2.660156 -7.65625 2.296875 -7.03125 C 1.941406 -6.40625 1.765625 -5.707031 1.765625 -4.9375 C 1.765625 -4.164062 1.941406 -3.46875 2.296875 -2.84375 C 2.660156 -2.21875 3.160156 -1.726562 3.796875 -1.375 C 4.429688 -1.019531 5.140625 -0.84375 5.921875 -0.84375 Z M 5.921875 -0.84375 "/></g></g></g><g fill="#00f1ff" fill-opacity="1"><g transform="translate(173.818017, 292.718302)"><g><path d="M 4.328125 0.078125 C 3.597656 0.078125 2.894531 -0.0351562 2.21875 -0.265625 C 1.550781 -0.503906 1.03125 -0.816406 0.65625 -1.203125 L 1.078125 -2 C 1.429688 -1.644531 1.898438 -1.351562 2.484375 -1.125 C 3.078125 -0.90625 3.691406 -0.796875 4.328125 -0.796875 C 5.210938 -0.796875 5.875 -0.957031 6.3125 -1.28125 C 6.75 -1.613281 6.96875 -2.035156 6.96875 -2.546875 C 6.96875 -2.941406 6.847656 -3.253906 6.609375 -3.484375 C 6.367188 -3.722656 6.078125 -3.90625 5.734375 -4.03125 C 5.390625 -4.164062 4.90625 -4.304688 4.28125 -4.453125 C 3.539062 -4.640625 2.945312 -4.816406 2.5 -4.984375 C 2.0625 -5.160156 1.6875 -5.425781 1.375 -5.78125 C 1.0625 -6.144531 0.90625 -6.632812 0.90625 -7.25 C 0.90625 -7.738281 1.035156 -8.1875 1.296875 -8.59375 C 1.554688 -9.007812 1.957031 -9.335938 2.5 -9.578125 C 3.050781 -9.828125 3.726562 -9.953125 4.53125 -9.953125 C 5.101562 -9.953125 5.65625 -9.875 6.1875 -9.71875 C 6.726562 -9.5625 7.195312 -9.347656 7.59375 -9.078125 L 7.25 -8.25 C 6.832031 -8.519531 6.390625 -8.722656 5.921875 -8.859375 C 5.453125 -8.992188 4.988281 -9.0625 4.53125 -9.0625 C 3.664062 -9.0625 3.015625 -8.894531 2.578125 -8.5625 C 2.148438 -8.226562 1.9375 -7.796875 1.9375 -7.265625 C 1.9375 -6.878906 2.054688 -6.566406 2.296875 -6.328125 C 2.535156 -6.085938 2.832031 -5.898438 3.1875 -5.765625 C 3.550781 -5.640625 4.039062 -5.503906 4.65625 -5.359375 C 5.375 -5.179688 5.957031 -5.003906 6.40625 -4.828125 C 6.851562 -4.648438 7.226562 -4.382812 7.53125 -4.03125 C 7.84375 -3.6875 8 -3.210938 8 -2.609375 C 8 -2.109375 7.863281 -1.65625 7.59375 -1.25 C 7.332031 -0.84375 6.921875 -0.519531 6.359375 -0.28125 C 5.804688 -0.0390625 5.128906 0.078125 4.328125 0.078125 Z M 4.328125 0.078125 "/></g></g></g><g fill="#00f1ff" fill-opacity="1"><g transform="translate(182.480839, 292.718302)"><g/></g></g><g fill="#00f1ff" fill-opacity="1"><g transform="translate(186.171341, 292.718302)"><g><path d="M 9.84375 -9.859375 L 9.84375 0 L 8.828125 0 L 8.828125 -4.546875 L 2.65625 -4.546875 L 2.65625 0 L 1.609375 0 L 1.609375 -9.859375 L 2.65625 -9.859375 L 2.65625 -5.46875 L 8.828125 -5.46875 L 8.828125 -9.859375 Z M 9.84375 -9.859375 "/></g></g></g><g fill="#00f1ff" fill-opacity="1"><g transform="translate(197.623168, 292.718302)"><g><path d="M 8.578125 -0.90625 L 8.578125 0 L 1.609375 0 L 1.609375 -9.859375 L 8.375 -9.859375 L 8.375 -8.96875 L 2.65625 -8.96875 L 2.65625 -5.453125 L 7.75 -5.453125 L 7.75 -4.5625 L 2.65625 -4.5625 L 2.65625 -0.90625 Z M 8.578125 -0.90625 "/></g></g></g><g fill="#00f1ff" fill-opacity="1"><g transform="translate(207.046622, 292.718302)"><g><path d="M 8.34375 0 L 6.09375 -3.171875 C 5.832031 -3.140625 5.566406 -3.125 5.296875 -3.125 L 2.65625 -3.125 L 2.65625 0 L 1.609375 0 L 1.609375 -9.859375 L 5.296875 -9.859375 C 6.554688 -9.859375 7.539062 -9.554688 8.25 -8.953125 C 8.96875 -8.359375 9.328125 -7.535156 9.328125 -6.484375 C 9.328125 -5.710938 9.128906 -5.0625 8.734375 -4.53125 C 8.347656 -4 7.796875 -3.613281 7.078125 -3.375 L 9.484375 0 Z M 5.265625 -4.015625 C 6.242188 -4.015625 6.988281 -4.226562 7.5 -4.65625 C 8.019531 -5.09375 8.28125 -5.703125 8.28125 -6.484375 C 8.28125 -7.285156 8.019531 -7.898438 7.5 -8.328125 C 6.988281 -8.753906 6.242188 -8.96875 5.265625 -8.96875 L 2.65625 -8.96875 L 2.65625 -4.015625 Z M 5.265625 -4.015625 "/></g></g></g><g fill="#00f1ff" fill-opacity="1"><g transform="translate(217.230718, 292.718302)"><g><path d="M 9.84375 -9.859375 L 9.84375 0 L 8.984375 0 L 2.65625 -8 L 2.65625 0 L 1.609375 0 L 1.609375 -9.859375 L 2.46875 -9.859375 L 8.828125 -1.859375 L 8.828125 -9.859375 Z M 9.84375 -9.859375 "/></g></g></g><g fill="#00f1ff" fill-opacity="1"><g transform="translate(228.682546, 292.718302)"><g><path d="M 7.796875 -2.640625 L 2.296875 -2.640625 L 1.109375 0 L 0.03125 0 L 4.53125 -9.859375 L 5.5625 -9.859375 L 10.078125 0 L 8.984375 0 Z M 7.40625 -3.484375 L 5.046875 -8.78125 L 2.671875 -3.484375 Z M 7.40625 -3.484375 "/></g></g></g><g fill="#00f1ff" fill-opacity="1"><g transform="translate(238.782128, 292.718302)"><g><path d="M 9.84375 -9.859375 L 9.84375 0 L 8.984375 0 L 2.65625 -8 L 2.65625 0 L 1.609375 0 L 1.609375 -9.859375 L 2.46875 -9.859375 L 8.828125 -1.859375 L 8.828125 -9.859375 Z M 9.84375 -9.859375 "/></g></g></g><g fill="#00f1ff" fill-opacity="1"><g transform="translate(250.233955, 292.718302)"><g><path d="M 1.609375 -9.859375 L 5.625 -9.859375 C 6.664062 -9.859375 7.582031 -9.648438 8.375 -9.234375 C 9.175781 -8.816406 9.796875 -8.234375 10.234375 -7.484375 C 10.679688 -6.742188 10.90625 -5.894531 10.90625 -4.9375 C 10.90625 -3.976562 10.679688 -3.125 10.234375 -2.375 C 9.796875 -1.625 9.175781 -1.039062 8.375 -0.625 C 7.582031 -0.207031 6.664062 0 5.625 0 L 1.609375 0 Z M 5.5625 -0.90625 C 6.425781 -0.90625 7.179688 -1.078125 7.828125 -1.421875 C 8.484375 -1.765625 8.988281 -2.238281 9.34375 -2.84375 C 9.695312 -3.445312 9.875 -4.144531 9.875 -4.9375 C 9.875 -5.71875 9.695312 -6.410156 9.34375 -7.015625 C 8.988281 -7.628906 8.484375 -8.109375 7.828125 -8.453125 C 7.179688 -8.796875 6.425781 -8.96875 5.5625 -8.96875 L 2.65625 -8.96875 L 2.65625 -0.90625 Z M 5.5625 -0.90625 "/></g></g></g><g fill="#00f1ff" fill-opacity="1"><g transform="translate(261.868899, 292.718302)"><g><path d="M 8.578125 -0.90625 L 8.578125 0 L 1.609375 0 L 1.609375 -9.859375 L 8.375 -9.859375 L 8.375 -8.96875 L 2.65625 -8.96875 L 2.65625 -5.453125 L 7.75 -5.453125 L 7.75 -4.5625 L 2.65625 -4.5625 L 2.65625 -0.90625 Z M 8.578125 -0.90625 "/></g></g></g><g fill="#00f1ff" fill-opacity="1"><g transform="translate(271.292353, 292.718302)"><g><path d="M 8.71875 -0.90625 L 8.71875 0 L 0.640625 0 L 0.640625 -0.71875 L 7.171875 -8.96875 L 0.734375 -8.96875 L 0.734375 -9.859375 L 8.5625 -9.859375 L 8.5625 -9.140625 L 2.03125 -0.90625 Z M 8.71875 -0.90625 "/></g></g></g><path fill="#00f1ff" d="M 175.277344 180.792969 C 173.644531 180.640625 172.042969 180.339844 170.46875 179.886719 C 170.632812 181.839844 170.925781 183.773438 171.355469 185.6875 C 171.773438 187.605469 172.328125 189.484375 173.015625 191.320312 C 177.703125 191.667969 182.613281 190.976562 187.449219 189.4375 L 187.628906 189.390625 L 187.664062 189.390625 L 187.757812 189.363281 C 186.003906 186.597656 184.605469 183.660156 183.558594 180.550781 C 180.808594 180.980469 178.046875 181.0625 175.277344 180.792969 Z M 175.277344 180.792969 " fill-opacity="1" fill-rule="nonzero"/><path fill="#00f1ff" d="M 170.394531 178.789062 C 171.574219 179.058594 172.765625 179.25 173.972656 179.367188 C 177.023438 179.65625 180.058594 179.542969 183.078125 179.023438 C 182.757812 177.925781 182.472656 176.796875 182.234375 175.652344 C 181.742188 173.292969 181.453125 170.914062 181.363281 168.507812 C 179.085938 168.769531 176.808594 168.789062 174.523438 168.570312 C 173.382812 168.457031 172.25 168.273438 171.128906 168.019531 C 170.429688 171.578125 170.1875 175.167969 170.394531 178.789062 Z M 170.394531 178.789062 " fill-opacity="1" fill-rule="nonzero"/><g clip-path="url(#35e4768658)"><path fill="#00f1ff" d="M 240.609375 116.785156 C 240.152344 113.992188 238.335938 112.078125 236.148438 112.078125 L 210.417969 112.078125 C 210.152344 109.933594 209.664062 107.84375 208.949219 105.804688 C 208.234375 103.769531 207.3125 101.828125 206.183594 99.992188 C 205.050781 98.152344 203.738281 96.453125 202.246094 94.894531 C 200.75 93.335938 199.105469 91.957031 197.316406 90.75 C 196.582031 90.253906 195.816406 89.8125 195.019531 89.429688 C 194.222656 89.046875 193.398438 88.722656 192.554688 88.464844 C 191.707031 88.203125 190.847656 88.007812 189.972656 87.875 C 189.097656 87.746094 188.214844 87.679688 187.332031 87.679688 C 186.445312 87.679688 185.566406 87.746094 184.691406 87.875 C 183.816406 88.007812 182.953125 88.203125 182.109375 88.464844 C 181.261719 88.722656 180.4375 89.046875 179.640625 89.429688 C 178.84375 89.8125 178.078125 90.253906 177.347656 90.75 C 170.859375 95.128906 165.847656 102.320312 164.539062 112.074219 L 138.816406 112.074219 C 136.617188 112.074219 134.816406 113.988281 134.351562 116.78125 L 122.867188 186.65625 C 122.289062 190.1875 124.777344 193.742188 127.796875 193.742188 L 149.4375 193.742188 C 144.414062 192.007812 139.796875 189.519531 135.589844 186.269531 C 141.726562 189.636719 148.6875 191.742188 156.136719 192.605469 C 156.539062 192.652344 156.941406 192.695312 157.34375 192.734375 L 157.398438 192.734375 C 156.414062 190.476562 155.632812 188.148438 155.054688 185.753906 C 149.667969 163.421875 163.28125 140.488281 185.90625 135.515625 C 188.042969 135.042969 190.203125 134.75 192.390625 134.640625 L 193.558594 134.597656 L 193.804688 134.597656 L 194.460938 134.632812 L 198.210938 134.832031 L 199.285156 134.890625 L 201.066406 134.988281 C 200.9375 135.019531 200.804688 135.058594 200.667969 135.09375 C 215.753906 137.519531 228.363281 148.5625 232.75 163.789062 C 235.171875 161.613281 237.492188 159.363281 239.707031 157.039062 C 241.925781 154.710938 244.039062 152.324219 246.046875 149.878906 Z M 169.796875 112.078125 C 171.753906 98.921875 176.445312 91.8125 187.050781 91.8125 C 197.660156 91.8125 202.34375 98.917969 204.304688 112.078125 Z M 169.796875 112.078125 " fill-opacity="1" fill-rule="nonzero"/></g><path fill="#00f1ff" d="M 195.65625 138.082031 C 193.824219 139.992188 192.179688 142.050781 190.714844 144.257812 C 189.253906 146.460938 187.996094 148.78125 186.949219 151.210938 C 185.898438 153.640625 185.078125 156.144531 184.476562 158.722656 C 183.878906 161.300781 183.511719 163.910156 183.378906 166.554688 C 185.175781 166.203125 186.9375 165.742188 188.675781 165.167969 L 188.859375 165.125 L 188.898438 165.105469 C 193.429688 163.875 197.46875 161.71875 201.011719 158.640625 C 204.921875 155.273438 207.890625 151.21875 209.921875 146.476562 C 208.988281 149.242188 207.710938 151.839844 206.082031 154.261719 C 204.449219 156.683594 202.53125 158.847656 200.320312 160.753906 C 196.992188 163.628906 193.210938 165.671875 188.984375 166.886719 L 188.984375 166.863281 C 187.128906 167.445312 185.246094 167.902344 183.328125 168.222656 C 183.28125 171.429688 183.585938 174.601562 184.234375 177.742188 C 184.304688 178.085938 184.378906 178.433594 184.457031 178.753906 C 186.078125 178.425781 187.671875 178.007812 189.242188 177.492188 L 189.429688 177.445312 L 189.460938 177.445312 C 193.921875 176.253906 197.90625 174.15625 201.414062 171.15625 C 205.261719 167.890625 208.195312 163.945312 210.210938 159.320312 C 209.285156 162.019531 208.019531 164.550781 206.414062 166.910156 C 204.804688 169.269531 202.914062 171.371094 200.738281 173.21875 C 197.445312 176.027344 193.714844 178.015625 189.550781 179.191406 L 189.550781 179.167969 C 188.007812 179.648438 186.441406 180.039062 184.855469 180.335938 C 185.683594 183.429688 186.851562 186.382812 188.359375 189.207031 C 192.472656 188.007812 196.164062 186.03125 199.4375 183.269531 C 203.21875 180.101562 206.105469 176.257812 208.089844 171.738281 C 207.183594 174.375 205.9375 176.84375 204.359375 179.140625 C 202.777344 181.4375 200.917969 183.480469 198.785156 185.273438 C 197.628906 186.230469 196.410156 187.09375 195.128906 187.871094 C 204.265625 184.371094 212.824219 179.792969 220.800781 174.128906 C 224.179688 171.753906 227.410156 169.242188 230.492188 166.59375 C 230.816406 166.320312 231.132812 166.042969 231.457031 165.757812 C 226.167969 149.640625 211.886719 138.5625 195.65625 138.082031 Z M 195.65625 138.082031 " fill-opacity="1" fill-rule="nonzero"/><path fill="#00f1ff" d="M 173.53125 192.640625 C 173.613281 192.847656 173.703125 193.050781 173.792969 193.253906 C 174.828125 193.125 175.902344 192.972656 176.96875 192.792969 C 175.863281 192.808594 174.757812 192.761719 173.65625 192.652344 Z M 173.53125 192.640625 " fill-opacity="1" fill-rule="nonzero"/><path fill="#00f1ff" d="M 181.332031 166.898438 C 181.339844 164.5 181.539062 162.125 181.925781 159.761719 C 182.316406 157.398438 182.894531 155.082031 183.660156 152.8125 C 184.425781 150.542969 185.367188 148.351562 186.488281 146.234375 C 187.605469 144.117188 188.886719 142.105469 190.332031 140.195312 C 180.675781 145.980469 173.878906 155.753906 171.382812 166.847656 C 171.984375 166.949219 172.59375 167.027344 173.214844 167.089844 C 175.929688 167.347656 178.636719 167.285156 181.332031 166.898438 Z M 181.332031 166.898438 " fill-opacity="1" fill-rule="nonzero"/><path fill="#00f1ff" d="M 159.621094 186.332031 C 162.792969 188.914062 166.890625 190.636719 171.816406 191.207031 C 170.746094 188.761719 169.917969 186.234375 169.339844 183.628906 C 169.015625 182.1875 168.769531 180.734375 168.601562 179.265625 C 165.710938 178.183594 163.195312 176.53125 161.054688 174.308594 C 163.273438 176.121094 165.757812 177.445312 168.5 178.28125 C 168.160156 174.636719 168.296875 171.007812 168.90625 167.394531 C 165.503906 166.3125 162.570312 164.476562 160.105469 161.894531 C 162.761719 164.082031 165.761719 165.582031 169.105469 166.394531 C 169.644531 163.589844 170.457031 160.867188 171.542969 158.222656 C 172.628906 155.582031 173.964844 153.074219 175.554688 150.699219 C 177.140625 148.324219 178.949219 146.128906 180.976562 144.117188 C 183.003906 142.105469 185.210938 140.3125 187.59375 138.742188 C 187.265625 138.804688 186.9375 138.871094 186.609375 138.945312 C 164.800781 143.726562 151.785156 166.410156 157.089844 188.652344 C 157.496094 190.359375 158.007812 192.039062 158.621094 193.679688 C 163.007812 194.011719 167.386719 193.953125 171.757812 193.503906 L 172.664062 193.410156 L 172.863281 193.386719 C 172.714844 193.101562 172.570312 192.808594 172.425781 192.519531 C 167.089844 191.742188 162.757812 189.554688 159.621094 186.332031 Z M 159.621094 186.332031 " fill-opacity="1" fill-rule="nonzero"/><g clip-path="url(#b32bb3c6fa)"><path fill="#00f1ff" d="M 252.09375 187.480469 L 246.535156 153.621094 C 242.457031 159.507812 237.832031 164.933594 232.660156 169.890625 C 232.292969 170.246094 231.921875 170.59375 231.550781 170.929688 C 228.300781 173.96875 224.878906 176.800781 221.28125 179.417969 C 211.464844 186.570312 201.148438 191.589844 191.007812 194.546875 L 247.164062 194.546875 C 250.1875 194.566406 252.679688 191.011719 252.09375 187.480469 Z M 232.566406 188.605469 C 233.753906 183.34375 233.9375 178.050781 233.113281 172.71875 C 233.027344 172.152344 232.933594 171.582031 232.828125 171.023438 C 233.195312 170.675781 233.5625 170.332031 233.929688 169.964844 C 233.929688 169.984375 233.929688 170 233.929688 170.019531 C 234.886719 176.320312 234.433594 182.515625 232.566406 188.605469 Z M 232.566406 188.605469 " fill-opacity="1" fill-rule="nonzero"/></g></svg>